<svg xmlns="http://www.w3.org/2000/svg" xmlns:xlink="http://www.w3.org/1999/xlink" width="466.301" height="169.269" viewBox="0 0 466.301 169.269">
  <defs>
    <style>
      .cls-1 {
        fill: rgba(0,0,0,0.5);
      }

      .cls-2 {
        fill: rgba(255,255,255,0.5);
      }

      .cls-3 {
        fill: url(#linear-gradient);
      }
    </style>
    <linearGradient id="linear-gradient" x1="0.214" y1="0.364" x2="1" y2="1" gradientUnits="objectBoundingBox">
      <stop offset="0" stop-color="#1d55c5"/>
      <stop offset="1" stop-color="#33e939"/>
    </linearGradient>
  </defs>
  <g id="Grupo_138" data-name="Grupo 138" transform="translate(-462.489 -104.366)">
    <g id="Grupo_136" data-name="Grupo 136" transform="translate(684.489 1263.366)">
      <path id="Trazado_2151" data-name="Trazado 2151" class="cls-1" d="M329.013,155a66.83,66.83,0,0,0-58.9,35.222c-.288.2-.695.448-1.3.894-4.394-8.7-8.69-17.293-13.068-25.841-1.322-2.581-2-6.086-5.87-5.987-3.8.1-4.448,3.639-5.777,6.189-3.628,6.969-7,14.073-10.662,21.023-.787,1.493-3.519,5.7-4.405,7.058.015-.908.035-1.815.043-2.723-.06-5.788-.159-11.575-.175-17.363-.043-16.3-.026-16.158-16.045-15.712-5.828.162-8.484,2.579-8.436,8.406.095,11.13.014,22.262.007,33.392-.007,12.29.273,24.589-.088,36.87-.546,18.629-14.9,31.479-32.613,29.653-16.953-1.748-27.483-13.653-27.6-31.65-.145-22.262-.017-44.526-.046-66.788-.011-8.727-1.194-9.746-10.133-9.948-5.977-.136-13.829.089-13.829,11.231l-.39,74.2c2.972,28.429,26.366,45.814,55.753,45.13,18.073-.421,33.277-6.748,44.768-21.063,18.3,1.277,36.632.215,54.947.483a13.561,13.561,0,0,1,6.418,1.3A66.847,66.847,0,1,0,329.013,155ZM228.694,224.023c-.008-.219-.017-.437-.024-.656C228.677,223.588,228.685,223.8,228.694,224.023Zm29.894,21.556c-3,.047-6,.008-9,.008-16.314-.164-19.207,2.6-9.931-15.489,2.73-5.323,5.11-10.825,7.738-16.2,1.84-3.766,3.55-3.776,5.362.177,3.653,7.963,7.649,15.772,11.181,23.787.155.348.291.675.419.994q.409,1.56.89,3.093C265.551,244.7,263.578,245.5,258.588,245.579Zm83.152,17.534a43.246,43.246,0,0,1-24.634.233c-17.141-5.544-29.149-22.485-29.319-40.79-.219-23.432,17.517-42.636,39.562-43.838.553-.021,1.106-.042,1.664-.042a43.378,43.378,0,0,1,8.281.8c18.741,3.961,33.589,21.865,33.607,42.31A44.233,44.233,0,0,1,341.739,263.113Z" transform="translate(-166.561 -1293.429)"/>
      <g id="Grupo_98" data-name="Grupo 98" transform="translate(-207 -1144)">
        <path id="Trazado_2149" data-name="Trazado 2149" class="cls-1" d="M277.342,201.031a49.679,49.679,0,0,0-8.2-23l-.3-1.071s-.365-.281-1.01-.76c-9.806-13.022-26.107-20.42-45-20.308a60.269,60.269,0,0,0-18.8,2.755,60.269,60.269,0,0,0-18.8-2.755c-18.9-.111-35.2,7.287-45,20.308-.646.479-1.01.76-1.01.76l-.3,1.071a49.678,49.678,0,0,0-8.195,23l.031,5.848-.031.109v71.675c.49,7.509,2.692,8.048,12.75,7.816.5,0,.99-.007,1.469-.018,7.917-.178,9.747-1.011,10.071-7.259.013-.189.018-.387.022-.585.024-.652.039-1.338.04-2.1.029-22.262-.1-44.526.046-66.788.117-18,10.647-29.9,27.6-31.65.845-.088.288-.131,1.118-.152.829.021,1.664.064,2.511.152,1.652.17,3.2.34,4.677.511q-.017.136-.029.276l.031,7.394-.031.136v90.631c.49,9.494,2.692,10.175,12.751,9.881.5,0,.99-.007,1.468-.021a25,25,0,0,0,5.647-.607c.322.033.659.061,1.024.085v-.444c2.422-1.077,3.2-3.34,3.4-8.213.013-.24.018-.49.024-.741.024-.823.039-1.692.039-2.66.029-28.15-.1-56.3.046-84.448a63.623,63.623,0,0,1,1.024-11.2c1.657-.195,3.412-.389,5.3-.582.845-.088,1.681-.131,2.511-.152.829.021.272.064,1.118.152,16.952,1.748,27.483,13.653,27.6,31.65.143,22.262.017,44.526.046,66.788,0,.766.015,1.453.039,2.1.006.2.011.4.024.585.323,6.248,2.153,7.08,10.071,7.259.478.011.971.017,1.468.018,10.059.233,12.261-.306,12.751-7.816V206.987l-.031-.109Z" transform="translate(-93.507 -155.894)"/>
        <path id="Trazado_2150" data-name="Trazado 2150" class="cls-1" d="M128.336,234.094v-.376q-.006-5.826,0-11.654t0-11.654v-.376q.013-10.5.063-21.007c0-.315-.018-.628-.046-.94q0-8.715,0-17.434c0-.968-.015-1.837-.039-2.66-.006-.251-.011-.5-.024-.741-.323-7.9-2.153-8.952-10.071-9.179-.478-.014-.971-.02-1.468-.021-10.059-.294-12.261.387-12.751,9.881V276.195c.49,9.494,2.692,10.175,12.751,9.881.5,0,.99-.007,1.468-.021,7.917-.227,9.747-1.28,10.071-9.179.013-.24.018-.49.024-.741.024-.823.039-1.692.039-2.66q.008-8.509,0-17.019c.028-.448.049-.9.046-1.355Q128.346,244.6,128.336,234.094Z" transform="translate(-104 -155.067)"/>
      </g>
    </g>
    <g id="Grupo_100" data-name="Grupo 100" transform="translate(677.489 1257.366)">
      <path id="Trazado_2151-2" data-name="Trazado 2151" class="cls-2" d="M329.013,155a66.83,66.83,0,0,0-58.9,35.222c-.288.2-.695.448-1.3.894-4.394-8.7-8.69-17.293-13.068-25.841-1.322-2.581-2-6.086-5.87-5.987-3.8.1-4.448,3.639-5.777,6.189-3.628,6.969-7,14.073-10.662,21.023-.787,1.493-3.519,5.7-4.405,7.058.015-.908.035-1.815.043-2.723-.06-5.788-.159-11.575-.175-17.363-.043-16.3-.026-16.158-16.045-15.712-5.828.162-8.484,2.579-8.436,8.406.095,11.13.014,22.262.007,33.392-.007,12.29.273,24.589-.088,36.87-.546,18.629-14.9,31.479-32.613,29.653-16.953-1.748-27.483-13.653-27.6-31.65-.145-22.262-.017-44.526-.046-66.788-.011-8.727-1.194-9.746-10.133-9.948-5.977-.136-13.829.089-13.829,11.231l-.39,74.2c2.972,28.429,26.366,45.814,55.753,45.13,18.073-.421,33.277-6.748,44.768-21.063,18.3,1.277,36.632.215,54.947.483a13.561,13.561,0,0,1,6.418,1.3A66.847,66.847,0,1,0,329.013,155ZM228.694,224.023c-.008-.219-.017-.437-.024-.656C228.677,223.588,228.685,223.8,228.694,224.023Zm29.894,21.556c-3,.047-6,.008-9,.008-16.314-.164-19.207,2.6-9.931-15.489,2.73-5.323,5.11-10.825,7.738-16.2,1.84-3.766,3.55-3.776,5.362.177,3.653,7.963,7.649,15.772,11.181,23.787.155.348.291.675.419.994q.409,1.56.89,3.093C265.551,244.7,263.578,245.5,258.588,245.579Zm83.152,17.534a43.246,43.246,0,0,1-24.634.233c-17.141-5.544-29.149-22.485-29.319-40.79-.219-23.432,17.517-42.636,39.562-43.838.553-.021,1.106-.042,1.664-.042a43.378,43.378,0,0,1,8.281.8c18.741,3.961,33.589,21.865,33.607,42.31A44.233,44.233,0,0,1,341.739,263.113Z" transform="translate(-166.561 -1293.429)"/>
      <g id="Grupo_98-2" data-name="Grupo 98" transform="translate(-207 -1144)">
        <path id="Trazado_2149-2" data-name="Trazado 2149" class="cls-3" d="M277.342,201.031a49.679,49.679,0,0,0-8.2-23l-.3-1.071s-.365-.281-1.01-.76c-9.806-13.022-26.107-20.42-45-20.308a60.269,60.269,0,0,0-18.8,2.755,60.269,60.269,0,0,0-18.8-2.755c-18.9-.111-35.2,7.287-45,20.308-.646.479-1.01.76-1.01.76l-.3,1.071a49.678,49.678,0,0,0-8.195,23l.031,5.848-.031.109v71.675c.49,7.509,2.692,8.048,12.75,7.816.5,0,.99-.007,1.469-.018,7.917-.178,9.747-1.011,10.071-7.259.013-.189.018-.387.022-.585.024-.652.039-1.338.04-2.1.029-22.262-.1-44.526.046-66.788.117-18,10.647-29.9,27.6-31.65.845-.088.288-.131,1.118-.152.829.021,1.664.064,2.511.152,1.652.17,3.2.34,4.677.511q-.017.136-.029.276l.031,7.394-.031.136v90.631c.49,9.494,2.692,10.175,12.751,9.881.5,0,.99-.007,1.468-.021a25,25,0,0,0,5.647-.607c.322.033.659.061,1.024.085v-.444c2.422-1.077,3.2-3.34,3.4-8.213.013-.24.018-.49.024-.741.024-.823.039-1.692.039-2.66.029-28.15-.1-56.3.046-84.448a63.623,63.623,0,0,1,1.024-11.2c1.657-.195,3.412-.389,5.3-.582.845-.088,1.681-.131,2.511-.152.829.021.272.064,1.118.152,16.952,1.748,27.483,13.653,27.6,31.65.143,22.262.017,44.526.046,66.788,0,.766.015,1.453.039,2.1.006.2.011.4.024.585.323,6.248,2.153,7.08,10.071,7.259.478.011.971.017,1.468.018,10.059.233,12.261-.306,12.751-7.816V206.987l-.031-.109Z" transform="translate(-93.507 -155.894)"/>
        <path id="Trazado_2150-2" data-name="Trazado 2150" class="cls-3" d="M128.336,234.094v-.376q-.006-5.826,0-11.654t0-11.654v-.376q.013-10.5.063-21.007c0-.315-.018-.628-.046-.94q0-8.715,0-17.434c0-.968-.015-1.837-.039-2.66-.006-.251-.011-.5-.024-.741-.323-7.9-2.153-8.952-10.071-9.179-.478-.014-.971-.02-1.468-.021-10.059-.294-12.261.387-12.751,9.881V276.195c.49,9.494,2.692,10.175,12.751,9.881.5,0,.99-.007,1.468-.021,7.917-.227,9.747-1.28,10.071-9.179.013-.24.018-.49.024-.741.024-.823.039-1.692.039-2.66q.008-8.509,0-17.019c.028-.448.049-.9.046-1.355Q128.346,244.6,128.336,234.094Z" transform="translate(-104 -155.067)"/>
      </g>
    </g>
  </g>
</svg>
